<?xml version="1.0" encoding="UTF-8" standalone="no"?>
<!-- Created with Inkscape (http://www.inkscape.org/) -->

<svg
   width="510.91882"
   height="510.44772"
   viewBox="0 0 510.91882 510.44772"
   version="1.1"
   id="svg5"
   xml:space="preserve"
   xmlns="http://www.w3.org/2000/svg"
   xmlns:svg="http://www.w3.org/2000/svg"><defs
     id="defs2" /><g
     id="layer1"
     transform="translate(-0.88594353,-1.6128294)"><path
       fill="#0078d4"
       d="M 0.88594351,1.6128294 H 224.83453 V 225.46451 H 0.88594351 Z m 248.46576649,0 H 473.30028 V 225.46451 H 249.35171 Z M 0.88594351,250.07858 H 224.83453 V 474.02715 H 0.88594351 Z m 248.46576649,0 H 473.30028 V 474.02715 H 249.35171"
       id="path55"
       style="stroke-width:0.0969051" /><g
       id="g282"
       transform="matrix(0.72789718,0,0,0.72789718,243.99609,202.84981)"><path
         fill="#ffffff"
         d="m 183.505,7.5 12.515,0.016 59.87,34.233 0.632,13.683 23.938,0.38 59.064,33.788 16.386,30.31 5.136,192.808 -11.126,16.582 -56.88,32.657 -19.564,-1.81 -13.315,20.69 -56.41,32.404 L 114.064,380.477 4.375,312.71 7.5,109.59 Z"
         id="path270" /><path
         fill="#dc0000"
         d="m 182.88,0 13.14,7.516 -86.427,50.52 c 0,0 -26.15,13.174 -35.433,23.326 -11.362,12.428 -7.917,30.125 2.16,42.48 24.693,30.28 88.66,54.367 141.12,34.56 C 239.666,150.01 339.524,89.6 339.524,89.6 l 28.397,16.243 v 213.12 l -18,10.337 V 207.36 l -56.88,32.66 v 121.937 l -32.88,18.88 V 311.04 l 20.28,-12.24 v -51.543 l -20.28,11.646 c 0,0 -2.37,-32.09 1.92,-42.902 4.1,-10.31 15.74,-21.72 25.2,-18.72 6.95,2.21 5.76,24.95 5.76,24.95 0,0 42.95,-24.85 56.88,-32.86 2.25,-36.34 -9.13,-59 -43.92,-55.44 -15.87,1.63 -28.37,10.02 -38.88,17.28 -11.14,7.7 -20.4,16.555 -28.8,26.64 -15.89,19.1 -33.02,45.26 -35.28,76.32 -1.77,24.357 0.71,159.07 0.71,159.07 L 183.6,424.8 0,318.96 V 105.84 Z M 115.2,167.04 c -13.318,-10.95 -29.718,-21.208 -47.52,-25.2 -11.942,-2.678 -23.93,-1.128 -32.4,3.6 -22.328,12.466 -28.844,45.437 -26.64,77.76 3.508,51.445 22.065,86.146 48.96,113.04 17.977,17.977 47.576,39.66 74.16,41.76 27.702,2.187 36.335,-16.023 42.48,-36.72 -20.956,-14.324 -44.265,-26.296 -65.52,-40.32 -3.91,2.99 -3.572,6.328 -9.36,6.48 -5.15,0.135 -10.955,-4.727 -14.4,-9.36 -6.09,-8.19 -8.026,-21.054 -8.64,-30.96 33.78,18.062 66.363,37.317 100.08,55.44 3.688,-67.27 -23.104,-124.2 -61.2,-155.52 z M 280.46,55.813 194.665,108.545 c 0,0 -22.85,14.813 -38.136,13.134 -4.99,-0.55 -13.31,-4.77 -13.68,-8.64 -0.7,-7.16 25.2,-21.02 25.2,-21.02 L 255.889,41.749 280.46,55.8 Z M 109.44,241.2 c -11.23,-5.81 -21.966,-12.114 -32.4,-18.72 1.032,-7.922 2.438,-15.645 12.24,-13.68 11.49,2.303 19.817,20.686 20.16,32.4 z"
         id="path272" /></g></g></svg>
