<?xml version="1.0" encoding="UTF-8" standalone="no"?>
<svg
   viewBox="0 0 23765624 23765624"
   version="1.1"
   id="svg108"
   sodipodi:docname="Windows_logo_-_2021.svg"
   xml:space="preserve"
   inkscape:export-filename="win11-uefi.svg"
   inkscape:export-xdpi="10.082461"
   inkscape:export-ydpi="10.082461"
   width="23765624"
   height="23765624"
   xmlns:inkscape="http://www.inkscape.org/namespaces/inkscape"
   xmlns:sodipodi="http://sodipodi.sourceforge.net/DTD/sodipodi-0.dtd"
   xmlns="http://www.w3.org/2000/svg"
   xmlns:svg="http://www.w3.org/2000/svg"><defs
     id="defs112" /><sodipodi:namedview
     id="namedview110"
     pagecolor="#505050"
     bordercolor="#ffffff"
     borderopacity="1"
     inkscape:showpageshadow="0"
     inkscape:pageopacity="0"
     inkscape:pagecheckerboard="1"
     inkscape:deskcolor="#505050"
     showgrid="false" /><path
     fill="#0078d4"
     d="M 0,0 H 2311 V 2310 H 0 Z M 2564,0 H 4875 V 2310 H 2564 Z M 0,2564 H 2311 V 4875 H 0 Z m 2564,0 H 4875 V 4875 H 2564"
     id="path106" /><g
     id="g294"
     transform="matrix(7.3692054,0,0,7.3692054,2164.8319,1747.9107)"><path
       fill="#ffffff"
       d="m 183.505,7.5 12.515,0.016 59.87,34.233 0.632,13.683 23.938,0.38 59.064,33.788 16.386,30.31 5.136,192.808 -11.126,16.582 -56.88,32.657 -19.564,-1.81 -13.315,20.69 -56.41,32.404 L 114.064,380.477 4.375,312.71 7.5,109.59 Z"
       id="path282" /><path
       fill="#dc0000"
       d="m 182.88,0 13.14,7.516 -86.427,50.52 c 0,0 -26.15,13.174 -35.433,23.326 -11.362,12.428 -7.917,30.125 2.16,42.48 24.693,30.28 88.66,54.367 141.12,34.56 C 239.666,150.01 339.524,89.6 339.524,89.6 l 28.397,16.243 v 213.12 l -18,10.337 V 207.36 l -56.88,32.66 v 121.937 l -32.88,18.88 V 311.04 l 20.28,-12.24 v -51.543 l -20.28,11.646 c 0,0 -2.37,-32.09 1.92,-42.902 4.1,-10.31 15.74,-21.72 25.2,-18.72 6.95,2.21 5.76,24.95 5.76,24.95 0,0 42.95,-24.85 56.88,-32.86 2.25,-36.34 -9.13,-59 -43.92,-55.44 -15.87,1.63 -28.37,10.02 -38.88,17.28 -11.14,7.7 -20.4,16.555 -28.8,26.64 -15.89,19.1 -33.02,45.26 -35.28,76.32 -1.77,24.357 0.71,159.07 0.71,159.07 L 183.6,424.8 0,318.96 V 105.84 Z M 115.2,167.04 c -13.318,-10.95 -29.718,-21.208 -47.52,-25.2 -11.942,-2.678 -23.93,-1.128 -32.4,3.6 -22.328,12.466 -28.844,45.437 -26.64,77.76 3.508,51.445 22.065,86.146 48.96,113.04 17.977,17.977 47.576,39.66 74.16,41.76 27.702,2.187 36.335,-16.023 42.48,-36.72 -20.956,-14.324 -44.265,-26.296 -65.52,-40.32 -3.91,2.99 -3.572,6.328 -9.36,6.48 -5.15,0.135 -10.955,-4.727 -14.4,-9.36 -6.09,-8.19 -8.026,-21.054 -8.64,-30.96 33.78,18.062 66.363,37.317 100.08,55.44 3.688,-67.27 -23.104,-124.2 -61.2,-155.52 z M 280.46,55.813 194.665,108.545 c 0,0 -22.85,14.813 -38.136,13.134 -4.99,-0.55 -13.31,-4.77 -13.68,-8.64 -0.7,-7.16 25.2,-21.02 25.2,-21.02 L 255.889,41.749 280.46,55.8 Z M 109.44,241.2 c -11.23,-5.81 -21.966,-12.114 -32.4,-18.72 1.032,-7.922 2.438,-15.645 12.24,-13.68 11.49,2.303 19.817,20.686 20.16,32.4 z"
       id="path284" /></g></svg>
